<?xml version="1.0" encoding="iso-8859-1"?>
<!-- Generator: Adobe Illustrator 18.1.1, SVG Export Plug-In . SVG Version: 6.00 Build 0)  -->
<svg version="1.1" id="Capa_1" xmlns="http://www.w3.org/2000/svg" xmlns:xlink="http://www.w3.org/1999/xlink" x="0px" y="0px"
	 viewBox="0 0 19.667 19.667" style="enable-background:new 0 0 19.667 19.667;" xml:space="preserve">
<g>
	<g>
		<path style="fill:#FFFFFF" d="M11.073,14.777c0,0.722-0.484,1.261-1.232,1.261H9.815c-0.722,0-1.22-0.539-1.22-1.261
			c0-0.747,0.513-1.26,1.246-1.26S11.06,14.028,11.073,14.777z M9.052,12.825h1.581l0.302-6.274H8.747L9.052,12.825z M19.485,18.12
			c-0.229,0.375-0.636,0.606-1.074,0.606H1.257c-0.453,0-0.871-0.244-1.095-0.638c-0.221-0.394-0.216-0.875,0.015-1.264L8.786,1.551
			c0.226-0.381,0.635-0.61,1.077-0.61h0.034c0.455,0.011,0.864,0.268,1.076,0.67l8.548,15.274
			C19.725,17.274,19.716,17.741,19.485,18.12z M18.411,17.465L9.862,2.196L1.258,17.465H18.411z"/>
	</g>
</g>
<g>
</g>
<g>
</g>
<g>
</g>
<g>
</g>
<g>
</g>
<g>
</g>
<g>
</g>
<g>
</g>
<g>
</g>
<g>
</g>
<g>
</g>
<g>
</g>
<g>
</g>
<g>
</g>
<g>
</g>
</svg>
