<?xml version="1.0" encoding="UTF-8" standalone="no"?>
<!-- Generator: Adobe Illustrator 19.1.0, SVG Export Plug-In . SVG Version: 6.00 Build 0)  -->

<svg
   xmlns:dc="http://purl.org/dc/elements/1.1/"
   xmlns:cc="http://creativecommons.org/ns#"
   xmlns:rdf="http://www.w3.org/1999/02/22-rdf-syntax-ns#"
   xmlns:svg="http://www.w3.org/2000/svg"
   xmlns="http://www.w3.org/2000/svg"
   xmlns:sodipodi="http://sodipodi.sourceforge.net/DTD/sodipodi-0.dtd"
   xmlns:inkscape="http://www.inkscape.org/namespaces/inkscape"
   version="1.1"
   id="Capa_1"
   x="0px"
   y="0px"
   viewBox="0 0 53 53"
   style="enable-background:new 0 0 53 53;"
   xml:space="preserve"
   width="512px"
   height="512px"
   inkscape:version="0.91 r13725"
   sodipodi:docname="dropdown_menu1.svg"><metadata
     id="metadata47"><rdf:RDF><cc:Work
         rdf:about=""><dc:format>image/svg+xml</dc:format><dc:type
           rdf:resource="http://purl.org/dc/dcmitype/StillImage" /></cc:Work></rdf:RDF></metadata><defs
     id="defs45" /><sodipodi:namedview
     pagecolor="#ffffff"
     bordercolor="#666666"
     borderopacity="1"
     objecttolerance="10"
     gridtolerance="10"
     guidetolerance="10"
     inkscape:pageopacity="0"
     inkscape:pageshadow="2"
     inkscape:window-width="1187"
     inkscape:window-height="657"
     id="namedview43"
     showgrid="false"
     inkscape:zoom="0.4609375"
     inkscape:cx="274.26914"
     inkscape:cy="256"
     inkscape:window-x="293"
     inkscape:window-y="316"
     inkscape:window-maximized="0"
     inkscape:current-layer="g5" /><g
     id="g3"
     style="fill:#000000"><g
       id="g5"
       style="fill:#000000"><path
         d="m 3.6610169,15.968486 45.6779661,0 c 1.029153,0 1.864406,-1.39125 1.864406,-3.105469 0,-1.714218 -0.835253,-3.1054684 -1.864406,-3.1054684 l -45.6779661,0 c -1.0291525,0 -1.8644068,1.3912504 -1.8644068,3.1054684 0,1.714219 0.8352543,3.105469 1.8644068,3.105469 z"
         id="path7"
         style="fill:#ffffff"
         inkscape:connector-curvature="0" /><path
         d="m 3.6610169,29.699153 45.6779661,0 c 1.029153,0 1.864406,-1.39125 1.864406,-3.105469 0,-1.714218 -0.835253,-3.105468 -1.864406,-3.105468 l -45.6779661,0 c -1.0291525,0 -1.8644068,1.39125 -1.8644068,3.105468 0,1.714219 0.8352543,3.105469 1.8644068,3.105469 z"
         id="path9"
         style="fill:#ffffff"
         inkscape:connector-curvature="0" /><path
         d="m 3.6610169,43.429819 45.6779661,0 c 1.029153,0 1.864406,-1.39125 1.864406,-3.105469 0,-1.714218 -0.835253,-3.105468 -1.864406,-3.105468 l -45.6779661,0 c -1.0291525,0 -1.8644068,1.39125 -1.8644068,3.105468 0,1.714219 0.8352543,3.105469 1.8644068,3.105469 z"
         id="path11"
         style="fill:#ffffff"
         inkscape:connector-curvature="0" /></g></g><g
     id="g13" /><g
     id="g15" /><g
     id="g17" /><g
     id="g19" /><g
     id="g21" /><g
     id="g23" /><g
     id="g25" /><g
     id="g27" /><g
     id="g29" /><g
     id="g31" /><g
     id="g33" /><g
     id="g35" /><g
     id="g37" /><g
     id="g39" /><g
     id="g41" /></svg>