<?xml version="1.0" encoding="UTF-8" standalone="no"?>
<!-- Generator: Adobe Illustrator 16.0.4, SVG Export Plug-In . SVG Version: 6.00 Build 0)  -->

<svg
   xmlns:dc="http://purl.org/dc/elements/1.1/"
   xmlns:cc="http://creativecommons.org/ns#"
   xmlns:rdf="http://www.w3.org/1999/02/22-rdf-syntax-ns#"
   xmlns:svg="http://www.w3.org/2000/svg"
   xmlns="http://www.w3.org/2000/svg"
   xmlns:sodipodi="http://sodipodi.sourceforge.net/DTD/sodipodi-0.dtd"
   xmlns:inkscape="http://www.inkscape.org/namespaces/inkscape"
   version="1.1"
   id="Capa_1"
   x="0px"
   y="0px"
   width="70"
   height="70"
   viewBox="0 0 10.446852 10.37037"
   enable-background="new 0 0 108 108"
   xml:space="preserve"
   inkscape:version="0.48.5 r10040"
   sodipodi:docname="home.svg"><metadata
   id="metadata13"><rdf:RDF><cc:Work
       rdf:about=""><dc:format>image/svg+xml</dc:format><dc:type
         rdf:resource="http://purl.org/dc/dcmitype/StillImage" /></cc:Work></rdf:RDF></metadata><defs
   id="defs11" /><sodipodi:namedview
   pagecolor="#ffffff"
   bordercolor="#666666"
   borderopacity="1"
   objecttolerance="10"
   gridtolerance="10"
   guidetolerance="10"
   inkscape:pageopacity="0"
   inkscape:pageshadow="2"
   inkscape:window-width="1009"
   inkscape:window-height="787"
   id="namedview9"
   showgrid="false"
   inkscape:zoom="2.1851852"
   inkscape:cx="-0.68644068"
   inkscape:cy="54"
   inkscape:window-x="0"
   inkscape:window-y="0"
   inkscape:window-maximized="0"
   inkscape:current-layer="Capa_1" />
<g
   transform="matrix(0.6,0,0,0.6,0.42344683,-0.06474)"
   id="g3"
   style="fill:#ffffff">
	<path
   d="m 15.829,8.122 -7.5,-6.5 C 8.141,1.459 7.862,1.459 7.674,1.622 L 5,3.938 V 3 C 5,2.448 4.552,2 4,2 3.448,2 3,2.448 3,3 V 5.671 L 0.172,8.122 c -0.208,0.181 -0.231,0.497 -0.05,0.706 0.182,0.208 0.497,0.23 0.706,0.05 L 8,2.662 15.172,8.878 C 15.267,8.96 15.383,9 15.5,9 15.64,9 15.778,8.941 15.877,8.828 16.059,8.619 16.036,8.304 15.829,8.122 z"
   id="path5"
   style="fill:#ffffff"
   inkscape:connector-curvature="0" />
	<path
   d="M 8.633,5.227 C 8.45,5.076 8.225,5 8,5 7.775,5 7.55,5.076 7.366,5.227 l -5,4.099 C 2.134,9.516 2,9.799 2,10.1 V 15 c 0,0.552 0.448,1 1,1 h 3 v -5 h 4 v 5 h 3 c 0.551,0 1,-0.448 1,-1 V 10.1 C 14,9.799 13.865,9.516 13.633,9.327 l -5,-4.1 z"
   id="path7"
   style="fill:#ffffff"
   inkscape:connector-curvature="0" />
</g>
</svg>