<?xml version="1.0" encoding="UTF-8" standalone="no"?>
<!-- Generator: Adobe Illustrator 16.0.0, SVG Export Plug-In . SVG Version: 6.00 Build 0)  -->

<svg
   xmlns:dc="http://purl.org/dc/elements/1.1/"
   xmlns:cc="http://creativecommons.org/ns#"
   xmlns:rdf="http://www.w3.org/1999/02/22-rdf-syntax-ns#"
   xmlns:svg="http://www.w3.org/2000/svg"
   xmlns="http://www.w3.org/2000/svg"
   xmlns:sodipodi="http://sodipodi.sourceforge.net/DTD/sodipodi-0.dtd"
   xmlns:inkscape="http://www.inkscape.org/namespaces/inkscape"
   version="1.1"
   id="Capa_1"
   x="0px"
   y="0px"
   width="512px"
   height="512px"
   viewBox="0 0 30 30"
   style="enable-background:new 0 0 30 30;"
   xml:space="preserve"
   inkscape:version="0.91 r13725"
   sodipodi:docname="interface.svg"><metadata
     id="metadata53"><rdf:RDF><cc:Work
         rdf:about=""><dc:format>image/svg+xml</dc:format><dc:type
           rdf:resource="http://purl.org/dc/dcmitype/StillImage" /></cc:Work></rdf:RDF></metadata><defs
     id="defs51" /><sodipodi:namedview
     pagecolor="#ffffff"
     bordercolor="#666666"
     borderopacity="1"
     objecttolerance="10"
     gridtolerance="10"
     guidetolerance="10"
     inkscape:pageopacity="0"
     inkscape:pageshadow="2"
     inkscape:window-width="1170"
     inkscape:window-height="666"
     id="namedview49"
     showgrid="false"
     inkscape:zoom="0.4609375"
     inkscape:cx="256"
     inkscape:cy="256"
     inkscape:window-x="286"
     inkscape:window-y="225"
     inkscape:window-maximized="0"
     inkscape:current-layer="Capa_1" /><g
     id="g3"
     style="fill:#ffffff"
     transform="translate(0,2.3437499)"><g
       id="g5"
       style="fill:#ffffff"><path
         d="m 26.1,8.536 c 0,0.582 -0.472,1.054 -1.054,1.054 l -14.197,0 C 10.267,9.59 9.795,9.118 9.795,8.536 l 0,0 c 0,-0.582 0.472,-1.054 1.054,-1.054 l 14.197,0 C 25.628,7.483 26.1,7.954 26.1,8.536 l 0,0 z"
         id="path7"
         style="fill:#ffffff"
         inkscape:connector-curvature="0" /><g
         id="g9"
         style="fill:#ffffff"><g
           id="g11"
           style="fill:#ffffff"><polygon
             points="0,23.706 0,26.737 7.579,23.706 24.105,23.706 24.105,21.333 21.887,20.446 21.887,21.487 7.152,21.487 2.218,23.462 2.218,11.062 4.085,11.062 4.085,8.844 0,8.844 "
             id="polygon13"
             style="fill:#ffffff" /><path
             d="m 5.895,3.263 0,3.771 0,2.218 0,8.874 16.527,0 1.275,0.51 2.219,0.887 4.084,1.634 0,-3.031 0,-14.863 -24.105,0 z m 21.887,14.618 -1.867,-0.747 -2.22,-0.887 -0.848,-0.34 -14.734,0 0,-6.654 0,-2.219 0,-1.552 19.669,0 0,12.399 z"
             id="path15"
             style="fill:#ffffff"
             inkscape:connector-curvature="0" /></g><path
           d="m 19.334,12.644 c 0,0.582 -0.275,1.054 -0.617,1.054 l -8.306,0 c -0.34,0 -0.616,-0.472 -0.616,-1.054 l 0,0 c 0,-0.582 0.276,-1.054 0.616,-1.054 l 8.306,0 c 0.342,0 0.617,0.472 0.617,1.054 l 0,0 z"
           id="path17"
           style="fill:#ffffff"
           inkscape:connector-curvature="0" /></g></g></g><g
     id="g19" /><g
     id="g21" /><g
     id="g23" /><g
     id="g25" /><g
     id="g27" /><g
     id="g29" /><g
     id="g31" /><g
     id="g33" /><g
     id="g35" /><g
     id="g37" /><g
     id="g39" /><g
     id="g41" /><g
     id="g43" /><g
     id="g45" /><g
     id="g47" /></svg>