<?xml version="1.0" encoding="UTF-8" standalone="no"?>
<!-- Generator: Adobe Illustrator 16.0.0, SVG Export Plug-In . SVG Version: 6.00 Build 0)  -->

<svg
   xmlns:dc="http://purl.org/dc/elements/1.1/"
   xmlns:cc="http://creativecommons.org/ns#"
   xmlns:rdf="http://www.w3.org/1999/02/22-rdf-syntax-ns#"
   xmlns:svg="http://www.w3.org/2000/svg"
   xmlns="http://www.w3.org/2000/svg"
   xmlns:sodipodi="http://sodipodi.sourceforge.net/DTD/sodipodi-0.dtd"
   xmlns:inkscape="http://www.inkscape.org/namespaces/inkscape"
   version="1.1"
   id="Warstwa_1"
   x="0px"
   y="0px"
   width="294.858px"
   height="110.22px"
   viewBox="0 0 294.858 110.22"
   enable-background="new 0 0 294.858 110.22"
   xml:space="preserve"
   inkscape:version="0.91 r13725"
   sodipodi:docname="TECH STEROWNIKI  napis.svg"><metadata
     id="metadata39"><rdf:RDF><cc:Work
         rdf:about=""><dc:format>image/svg+xml</dc:format><dc:type
           rdf:resource="http://purl.org/dc/dcmitype/StillImage" /></cc:Work></rdf:RDF></metadata><defs
     id="defs37" /><sodipodi:namedview
     pagecolor="#ffffff"
     bordercolor="#666666"
     borderopacity="1"
     objecttolerance="10"
     gridtolerance="10"
     guidetolerance="10"
     inkscape:pageopacity="0"
     inkscape:pageshadow="2"
     inkscape:window-width="1416"
     inkscape:window-height="699"
     id="namedview35"
     showgrid="false"
     inkscape:zoom="1.2209267"
     inkscape:cx="147.429"
     inkscape:cy="55.110001"
     inkscape:window-x="0"
     inkscape:window-y="97"
     inkscape:window-maximized="0"
     inkscape:current-layer="Warstwa_1" /><g
     id="g3"
     style="fill:#ffffff"><path
       d="M56.688,18.587H0V0h56.688V18.587z M36.112,60.109H17.617v-32.32h18.495V60.109z"
       id="path5"
       style="fill:#ffffff" /><path
       d="M117.583,13.917H80.454v4.67H61.958V0h55.624V13.917z M118.6,60.109H61.958V27.743h41.707v13.871H80.454v4.578H118.6   V60.109z"
       id="path7"
       style="fill:#ffffff" /><path
       d="M211.398,18.587h-84.476V8.97c0-2.867,1.479-5.133,4.439-6.797C133.919,0.725,136.863,0,140.192,0h57.936   c3.329,0,6.272,0.709,8.832,2.127c2.959,1.665,4.438,3.946,4.438,6.843V18.587z M211.398,60.109h-64.085h-7.121   c-0.678,0-1.819-0.2-3.421-0.601c-2.621-0.647-4.748-1.541-6.381-2.682c-2.312-1.634-3.468-3.637-3.468-6.011V27.743h18.495v13.732   c0,0.678,0.116,1.249,0.347,1.711s0.593,0.971,1.086,1.526c0.37,0.37,1.018,0.74,1.942,1.109l1.294,0.37h61.311V60.109z"
       id="path9"
       style="fill:#ffffff" /><path
       d="M239.234,18.587h-18.495V0h18.495V18.587z M294.858,60.109h-18.495V41.614h-37.129v18.495h-18.495V27.743h74.119V60.109z    M294.858,18.587h-18.495V0h18.495V18.587z"
       id="path11"
       style="fill:#ffffff" /></g><g
     id="g13"
     style="fill:#ffffff"><path
       d="M21.974,82.466c-0.471,0.754-0.919,1.132-1.745,1.132c-1.438,0-3.207-2.217-6.696-2.217c-2.995,0-4.434,1.368-4.434,3.537   c0,5.565,15.328,2.405,15.328,13.913c0,6.343-4.48,11.389-12.309,11.389c-4.268,0-9.102-1.839-11.79-4.527l2.358-3.726   c0.354-0.566,1.014-0.943,1.745-0.943c1.862,0,3.631,2.876,7.923,2.876c2.9,0,4.575-1.226,4.575-3.985   c0-6.461-15.28-1.769-15.28-14.596c0-5.188,4.245-10.21,11.79-10.21c4.221,0,8.065,1.391,10.517,3.655L21.974,82.466z"
       id="path15"
       style="fill:#ffffff" /><path
       d="M53.342,75.486v6.319h-9.668v28.037h-7.97V81.806h-9.668v-6.319H53.342z"
       id="path17"
       style="fill:#ffffff" /><path
       d="M78.769,75.486v6.131H64.667v8.018h10.8v5.895h-10.8v8.183h14.101v6.13H56.65V75.486H78.769z"
       id="path19"
       style="fill:#ffffff" /><path
       d="M91.272,97.133v12.709h-7.97V75.486h11.177c9.951,0,13.818,4.339,13.818,10.187c0,4.409-2.453,8.088-6.909,9.786   c1.061,0.542,2.028,1.297,2.712,2.429l7.31,11.955h-7.216c-1.344,0-2.287-0.495-2.877-1.509l-5.707-9.975   c-0.495-0.873-1.084-1.226-2.311-1.226H91.272z M91.272,91.639h3.207c4.339,0,6.037-2.358,6.037-5.376   c0-3.019-1.91-4.81-6.037-4.81h-3.207V91.639z"
       id="path21"
       style="fill:#ffffff" /><path
       d="M129.575,110.22c-10.705,0-17.874-7.64-17.874-17.567c0-9.927,7.168-17.544,17.874-17.544   c10.682,0,17.827,7.664,17.827,17.544C147.401,102.581,140.257,110.22,129.575,110.22z M129.575,81.688   c-6.131,0-9.715,4.15-9.715,10.965c0,6.885,3.584,10.965,9.715,10.965c6.083,0,9.668-4.08,9.668-10.965   C139.243,85.838,135.658,81.688,129.575,81.688z"
       id="path23"
       style="fill:#ffffff" /><path
       d="M148.636,75.486h6.697c1.391,0,2.358,0.684,2.641,1.721l4.716,17.921c0.306,1.155,0.66,2.499,0.825,3.938   c0.307-1.486,0.708-2.783,1.062-3.938l5.564-17.921c0.283-0.873,1.273-1.721,2.594-1.721h2.358c1.391,0,2.288,0.66,2.641,1.721   l5.518,17.921c0.354,1.108,0.755,2.334,1.038,3.749c0.26-1.392,0.519-2.641,0.801-3.749l4.717-17.921   c0.259-0.919,1.273-1.721,2.593-1.721h6.272l-10.611,34.356h-7.215l-6.461-21.293c-0.212-0.66-0.472-1.462-0.684-2.334   c-0.212,0.873-0.471,1.674-0.684,2.334l-6.555,21.293h-7.215L148.636,75.486z"
       id="path25"
       style="fill:#ffffff" /><path
       d="M208.59,76.712l16.318,20.633c-0.118-1.32-0.188-2.57-0.188-3.679v-18.18h7.027v34.356h-4.15   c-1.226,0-2.005-0.307-2.783-1.32l-16.2-20.468c0.094,1.203,0.165,2.358,0.165,3.372v18.417h-7.027V75.486h4.197   C207.317,75.486,207.718,75.651,208.59,76.712z"
       id="path27"
       style="fill:#ffffff" /><path
       d="M246.139,109.843h-8.017V75.486h8.017V109.843z"
       id="path29"
       style="fill:#ffffff" /><path
       d="M260.479,89.399h1.273c1.179,0,2.028-0.377,2.547-1.108l7.734-11.225c0.849-1.226,1.863-1.58,3.443-1.58h6.933   l-10.187,13.889c-0.731,1.014-1.509,1.626-2.335,2.075c1.203,0.448,2.17,1.156,2.995,2.453l10.375,15.94h-7.121   c-1.815,0-2.476-0.519-3.113-1.462l-7.782-11.955c-0.565-0.873-1.344-1.203-2.829-1.203h-1.934v14.62h-7.97V75.486h7.97V89.399z"
       id="path31"
       style="fill:#ffffff" /><path
       d="M294.915,109.843h-8.017V75.486h8.017V109.843z"
       id="path33"
       style="fill:#ffffff" /></g></svg>