<?xml version="1.0" encoding="UTF-8" standalone="no"?>
<!-- Generator: Adobe Illustrator 16.0.3, SVG Export Plug-In . SVG Version: 6.00 Build 0)  -->

<svg
   xmlns:dc="http://purl.org/dc/elements/1.1/"
   xmlns:cc="http://creativecommons.org/ns#"
   xmlns:rdf="http://www.w3.org/1999/02/22-rdf-syntax-ns#"
   xmlns:svg="http://www.w3.org/2000/svg"
   xmlns="http://www.w3.org/2000/svg"
   xmlns:sodipodi="http://sodipodi.sourceforge.net/DTD/sodipodi-0.dtd"
   xmlns:inkscape="http://www.inkscape.org/namespaces/inkscape"
   version="1.1"
   id="Warstwa_1"
   x="0px"
   y="0px"
   width="300px"
   height="118px"
   viewBox="0 0 300 118"
   enable-background="new 0 0 300 118"
   xml:space="preserve"
   inkscape:version="0.91 r13725"
   sodipodi:docname="logo_tech_vector_2_en.svg"><metadata
     id="metadata41"><rdf:RDF><cc:Work
         rdf:about=""><dc:format>image/svg+xml</dc:format><dc:type
           rdf:resource="http://purl.org/dc/dcmitype/StillImage" /></cc:Work></rdf:RDF></metadata><defs
     id="defs39" /><sodipodi:namedview
     pagecolor="#ffffff"
     bordercolor="#666666"
     borderopacity="1"
     objecttolerance="10"
     gridtolerance="10"
     guidetolerance="10"
     inkscape:pageopacity="0"
     inkscape:pageshadow="2"
     inkscape:window-width="1543"
     inkscape:window-height="847"
     id="namedview37"
     showgrid="false"
     inkscape:zoom="1.2"
     inkscape:cx="150"
     inkscape:cy="59"
     inkscape:window-x="0"
     inkscape:window-y="97"
     inkscape:window-maximized="0"
     inkscape:current-layer="Warstwa_1" /><g
     id="g3"
     style="fill:#ffffff"
     transform="matrix(1.3523299,0,0,1.3523299,-53.617343,-22.00326)"><path
       d="m 82.057,33.902 -42.604,0 0,-14.025 42.604,0 0,14.025 z m -15.487,31.239 -13.957,0 0,-24.393 13.957,0 0,24.393 z"
       id="path5"
       style="fill:#ffffff"
       inkscape:connector-curvature="0" /><path
       d="m 127.784,30.445 -27.849,0 0,3.457 -13.892,0 0,-14.025 41.74,0 0,10.568 z m 0.797,34.696 -42.538,0 0,-24.327 31.305,0 0,10.435 -17.413,0 0,3.456 28.646,0 0,10.436 z"
       id="path7"
       style="fill:#ffffff"
       inkscape:connector-curvature="0" /><path
       d="m 198.301,33.902 -63.473,0 0,-7.178 c 0,-1.063 0.276,-2.016 0.831,-2.858 0.554,-0.841 1.285,-1.562 2.193,-2.16 0.908,-0.598 1.96,-1.052 3.157,-1.363 1.196,-0.31 2.436,-0.465 3.722,-0.465 l 43.601,0 c 1.373,0 2.658,0.156 3.855,0.465 1.195,0.311 2.248,0.765 3.156,1.363 0.908,0.598 1.629,1.319 2.16,2.16 0.531,0.842 0.797,1.794 0.797,2.858 l 0,7.178 z m 0,31.239 -53.569,0 c -0.532,0 -1.396,-0.155 -2.592,-0.466 -4.875,-1.284 -7.312,-3.456 -7.312,-6.514 l 0,-17.413 13.892,0 0,10.369 c 0,0.887 0.209,1.573 0.63,2.06 0.422,0.488 1.053,0.887 1.894,1.197 l 0.932,0.332 46.125,0 0,10.435 z"
       id="path9"
       style="fill:#ffffff"
       inkscape:connector-curvature="0" /><path
       d="m 219.238,33.902 -13.891,0 0,-14.025 13.891,0 0,14.025 z m 41.741,31.239 -13.891,0 0,-13.892 -27.85,0 0,13.892 -13.891,0 0,-24.327 55.631,0 0,24.327 z m 0,-31.239 -13.891,0 0,-14.025 13.891,0 0,14.025 z"
       id="path11"
       style="fill:#ffffff"
       inkscape:connector-curvature="0" /><g
       id="g13"
       style="fill:#ffffff"><path
         d="m 56.736,94.259 c 0.261,0 0.48,0.095 0.658,0.282 l 1.862,1.987 c -0.918,1.169 -2.058,2.056 -3.42,2.661 -1.361,0.605 -2.981,0.907 -4.859,0.907 -1.701,0 -3.23,-0.289 -4.586,-0.868 -1.356,-0.579 -2.51,-1.385 -3.459,-2.418 -0.95,-1.033 -1.68,-2.259 -2.191,-3.679 -0.511,-1.419 -0.767,-2.968 -0.767,-4.648 0,-1.127 0.123,-2.198 0.368,-3.216 0.245,-1.018 0.603,-1.954 1.072,-2.81 0.469,-0.855 1.035,-1.628 1.698,-2.316 0.662,-0.688 1.411,-1.275 2.246,-1.761 0.835,-0.486 1.745,-0.855 2.731,-1.111 0.986,-0.256 2.037,-0.384 3.154,-0.384 0.834,0 1.625,0.073 2.371,0.22 0.746,0.146 1.442,0.35 2.089,0.61 0.647,0.26 1.244,0.576 1.792,0.947 0.548,0.37 1.041,0.774 1.479,1.213 l -1.581,2.159 c -0.094,0.136 -0.214,0.256 -0.36,0.36 -0.146,0.104 -0.344,0.156 -0.595,0.156 -0.25,0 -0.503,-0.088 -0.759,-0.266 -0.256,-0.178 -0.569,-0.376 -0.939,-0.595 -0.371,-0.22 -0.835,-0.417 -1.393,-0.595 -0.559,-0.178 -1.266,-0.267 -2.121,-0.267 -0.949,0 -1.821,0.173 -2.614,0.517 -0.793,0.345 -1.474,0.843 -2.042,1.495 -0.568,0.652 -1.009,1.453 -1.322,2.402 -0.313,0.949 -0.47,2.029 -0.47,3.239 0,1.222 0.169,2.309 0.509,3.264 0.339,0.955 0.803,1.761 1.393,2.418 0.589,0.657 1.278,1.156 2.066,1.495 0.788,0.339 1.63,0.509 2.528,0.509 0.532,0 1.015,-0.026 1.448,-0.078 0.433,-0.053 0.834,-0.142 1.205,-0.267 0.37,-0.125 0.72,-0.287 1.048,-0.485 0.329,-0.198 0.66,-0.448 0.994,-0.751 0.115,-0.094 0.235,-0.172 0.36,-0.234 0.125,-0.061 0.261,-0.092 0.407,-0.092 z"
         id="path15"
         style="fill:#ffffff"
         inkscape:connector-curvature="0" /><path
         d="m 83.344,88.483 c 0,1.659 -0.279,3.198 -0.837,4.617 -0.559,1.42 -1.346,2.646 -2.363,3.679 -1.018,1.032 -2.241,1.844 -3.67,2.434 -1.429,0.59 -3.016,0.884 -4.758,0.884 -1.743,0 -3.329,-0.294 -4.758,-0.884 -1.429,-0.59 -2.655,-1.401 -3.678,-2.434 -1.023,-1.033 -1.813,-2.259 -2.372,-3.679 -0.558,-1.419 -0.837,-2.958 -0.837,-4.617 0,-1.658 0.279,-3.195 0.837,-4.609 0.558,-1.413 1.349,-2.637 2.372,-3.67 1.022,-1.033 2.248,-1.844 3.678,-2.434 1.43,-0.59 3.016,-0.885 4.758,-0.885 1.742,0 3.328,0.295 4.758,0.885 1.43,0.59 2.653,1.403 3.67,2.441 1.017,1.038 1.805,2.265 2.363,3.679 0.557,1.414 0.837,2.945 0.837,4.593 z m -4.805,0 c 0,-1.189 -0.156,-2.256 -0.469,-3.2 -0.313,-0.944 -0.765,-1.748 -1.354,-2.41 -0.59,-0.663 -1.305,-1.169 -2.144,-1.519 -0.84,-0.35 -1.792,-0.524 -2.856,-0.524 -1.064,0 -2.019,0.175 -2.864,0.524 -0.845,0.349 -1.563,0.855 -2.152,1.519 -0.589,0.662 -1.041,1.466 -1.354,2.41 -0.313,0.944 -0.47,2.011 -0.47,3.2 0,1.2 0.157,2.272 0.47,3.217 0.313,0.945 0.764,1.745 1.354,2.402 0.59,0.657 1.307,1.161 2.152,1.511 0.845,0.35 1.8,0.524 2.864,0.524 1.064,0 2.016,-0.175 2.856,-0.524 0.839,-0.35 1.554,-0.854 2.144,-1.511 0.589,-0.657 1.041,-1.458 1.354,-2.402 0.313,-0.944 0.469,-2.016 0.469,-3.217 z"
         id="path17"
         style="fill:#ffffff"
         inkscape:connector-curvature="0" /><path
         d="m 106.241,77.137 0,22.71 -2.426,0 c -0.365,0 -0.673,-0.06 -0.923,-0.18 -0.25,-0.12 -0.496,-0.326 -0.736,-0.618 L 90.84,84.649 c 0.031,0.365 0.055,0.726 0.07,1.08 0.015,0.354 0.023,0.684 0.023,0.985 l 0,13.132 -4.147,0 0,-22.71 2.473,0 c 0.198,0 0.368,0.008 0.508,0.023 0.141,0.016 0.269,0.053 0.384,0.109 0.115,0.058 0.224,0.133 0.329,0.228 0.104,0.094 0.219,0.219 0.344,0.375 l 11.394,14.462 c -0.042,-0.396 -0.073,-0.78 -0.094,-1.15 -0.021,-0.37 -0.031,-0.723 -0.031,-1.057 l 0,-12.99 4.148,0 z"
         id="path19"
         style="fill:#ffffff"
         inkscape:connector-curvature="0" /><path
         d="m 127.073,80.924 -6.636,0 0,18.923 -4.711,0 0,-18.923 -6.636,0 0,-3.787 17.983,0 0,3.787 z"
         id="path21"
         style="fill:#ffffff"
         inkscape:connector-curvature="0" /><path
         d="m 148.014,99.847 -4.242,0 c -0.793,0 -1.367,-0.303 -1.722,-0.908 l -4.32,-6.965 c -0.177,-0.271 -0.373,-0.469 -0.587,-0.595 -0.214,-0.125 -0.53,-0.188 -0.947,-0.188 l -1.597,0 0,8.655 -4.695,0 0,-22.71 7.137,0 c 1.586,0 2.942,0.164 4.069,0.493 1.127,0.328 2.05,0.785 2.77,1.369 0.72,0.585 1.247,1.281 1.581,2.09 0.333,0.809 0.501,1.698 0.501,2.668 0,0.752 -0.107,1.464 -0.321,2.137 -0.214,0.673 -0.524,1.286 -0.931,1.839 -0.407,0.554 -0.908,1.044 -1.502,1.472 -0.594,0.428 -1.273,0.771 -2.035,1.032 0.303,0.167 0.584,0.368 0.845,0.603 0.261,0.235 0.496,0.515 0.704,0.838 l 5.292,8.17 z M 137.011,87.889 c 0.761,0 1.419,-0.096 1.972,-0.289 0.553,-0.193 1.007,-0.459 1.362,-0.798 0.354,-0.34 0.616,-0.738 0.783,-1.198 0.167,-0.459 0.25,-0.959 0.25,-1.502 0,-1.074 -0.358,-1.909 -1.072,-2.504 -0.715,-0.595 -1.803,-0.893 -3.263,-0.893 l -2.442,0 0,7.184 2.41,0 z"
         id="path23"
         style="fill:#ffffff"
         inkscape:connector-curvature="0" /><path
         d="m 171.82,88.483 c 0,1.659 -0.279,3.198 -0.838,4.617 -0.559,1.42 -1.346,2.646 -2.363,3.679 -1.018,1.032 -2.24,1.844 -3.67,2.434 -1.43,0.59 -3.016,0.884 -4.758,0.884 -1.744,0 -3.33,-0.294 -4.758,-0.884 -1.43,-0.59 -2.656,-1.401 -3.68,-2.434 -1.022,-1.033 -1.813,-2.259 -2.371,-3.679 -0.558,-1.419 -0.837,-2.958 -0.837,-4.617 0,-1.658 0.279,-3.195 0.837,-4.609 0.558,-1.413 1.349,-2.637 2.371,-3.67 1.023,-1.033 2.25,-1.844 3.68,-2.434 1.428,-0.59 3.014,-0.885 4.758,-0.885 1.742,0 3.328,0.295 4.758,0.885 1.43,0.59 2.652,1.403 3.67,2.441 1.018,1.038 1.805,2.265 2.363,3.679 0.559,1.414 0.838,2.945 0.838,4.593 z m -4.804,0 c 0,-1.189 -0.158,-2.256 -0.471,-3.2 -0.313,-0.944 -0.764,-1.748 -1.354,-2.41 -0.59,-0.663 -1.305,-1.169 -2.145,-1.519 -0.84,-0.35 -1.791,-0.524 -2.855,-0.524 -1.064,0 -2.02,0.175 -2.865,0.524 -0.845,0.349 -1.563,0.855 -2.152,1.519 -0.59,0.662 -1.041,1.466 -1.354,2.41 -0.313,0.944 -0.469,2.011 -0.469,3.2 0,1.2 0.156,2.272 0.469,3.217 0.313,0.945 0.764,1.745 1.354,2.402 0.59,0.657 1.307,1.161 2.152,1.511 0.845,0.35 1.801,0.524 2.865,0.524 1.064,0 2.016,-0.175 2.855,-0.524 0.839,-0.349 1.555,-0.854 2.145,-1.511 0.59,-0.657 1.041,-1.458 1.354,-2.402 0.313,-0.944 0.471,-2.016 0.471,-3.217 z"
         id="path25"
         style="fill:#ffffff"
         inkscape:connector-curvature="0" /><path
         d="m 188.738,96.027 0,3.819 -13.476,0 0,-22.71 4.695,0 0,18.891 8.781,0 z"
         id="path27"
         style="fill:#ffffff"
         inkscape:connector-curvature="0" /><path
         d="m 205.078,96.027 0,3.819 -13.476,0 0,-22.71 4.695,0 0,18.891 8.781,0 z"
         id="path29"
         style="fill:#ffffff"
         inkscape:connector-curvature="0" /><path
         d="m 212.668,80.814 0,5.838 7.575,0 0,3.553 -7.575,0 0,5.964 9.735,0 0,3.678 -14.462,0 0,-22.71 14.462,0 0,3.678 -9.735,0 z"
         id="path31"
         style="fill:#ffffff"
         inkscape:connector-curvature="0" /><path
         d="m 244.018,99.847 -4.241,0 c -0.793,0 -1.367,-0.303 -1.722,-0.908 l -4.319,-6.965 c -0.178,-0.271 -0.374,-0.469 -0.587,-0.595 -0.215,-0.125 -0.53,-0.188 -0.947,-0.188 l -1.597,0 0,8.655 -4.695,0 0,-22.71 7.137,0 c 1.586,0 2.942,0.164 4.069,0.493 1.127,0.328 2.051,0.785 2.771,1.369 0.72,0.585 1.247,1.281 1.581,2.09 0.334,0.809 0.501,1.698 0.501,2.668 0,0.752 -0.107,1.464 -0.321,2.137 -0.214,0.673 -0.524,1.286 -0.931,1.839 -0.407,0.554 -0.908,1.044 -1.503,1.472 -0.595,0.428 -1.273,0.771 -2.034,1.032 0.302,0.167 0.584,0.368 0.845,0.603 0.261,0.235 0.495,0.515 0.704,0.838 l 5.289,8.17 z M 233.015,87.889 c 0.762,0 1.419,-0.096 1.973,-0.289 0.553,-0.193 1.007,-0.459 1.361,-0.798 0.354,-0.34 0.615,-0.738 0.782,-1.198 0.167,-0.459 0.251,-0.959 0.251,-1.502 0,-1.074 -0.357,-1.909 -1.072,-2.504 -0.715,-0.595 -1.803,-0.893 -3.264,-0.893 l -2.441,0 0,7.184 2.41,0 z"
         id="path33"
         style="fill:#ffffff"
         inkscape:connector-curvature="0" /><path
         d="m 258.542,81.487 c -0.146,0.24 -0.295,0.415 -0.445,0.524 -0.151,0.109 -0.348,0.165 -0.587,0.165 -0.23,0 -0.478,-0.081 -0.744,-0.243 -0.266,-0.161 -0.576,-0.336 -0.931,-0.524 -0.355,-0.188 -0.762,-0.362 -1.221,-0.524 -0.46,-0.161 -0.997,-0.242 -1.612,-0.242 -1.086,0 -1.899,0.242 -2.441,0.728 -0.543,0.485 -0.814,1.119 -0.814,1.901 0,0.501 0.148,0.916 0.446,1.245 0.297,0.328 0.688,0.612 1.174,0.853 0.486,0.241 1.035,0.454 1.651,0.642 0.615,0.188 1.246,0.395 1.894,0.618 0.646,0.225 1.278,0.488 1.894,0.791 0.616,0.303 1.166,0.684 1.651,1.143 0.485,0.459 0.877,1.02 1.174,1.682 0.298,0.663 0.446,1.469 0.446,2.419 0,1.032 -0.18,2.001 -0.54,2.903 -0.36,0.902 -0.879,1.69 -1.558,2.363 -0.678,0.673 -1.516,1.202 -2.512,1.588 -0.996,0.387 -2.126,0.579 -3.389,0.579 -0.72,0 -1.438,-0.072 -2.152,-0.219 -0.715,-0.146 -1.403,-0.35 -2.065,-0.61 -0.663,-0.261 -1.286,-0.573 -1.87,-0.939 -0.585,-0.364 -1.096,-0.771 -1.534,-1.221 l 1.377,-2.223 c 0.115,-0.166 0.267,-0.305 0.454,-0.414 0.188,-0.109 0.386,-0.165 0.595,-0.165 0.282,0 0.579,0.104 0.893,0.313 0.313,0.209 0.673,0.438 1.08,0.688 0.406,0.251 0.879,0.48 1.416,0.688 0.537,0.209 1.182,0.313 1.933,0.313 1.096,0 1.943,-0.251 2.544,-0.751 0.6,-0.501 0.899,-1.247 0.899,-2.238 0,-0.574 -0.148,-1.038 -0.445,-1.394 -0.298,-0.354 -0.687,-0.651 -1.166,-0.892 -0.48,-0.24 -1.028,-0.446 -1.644,-0.618 -0.616,-0.173 -1.247,-0.362 -1.895,-0.571 -0.646,-0.209 -1.278,-0.459 -1.894,-0.752 -0.615,-0.292 -1.163,-0.678 -1.644,-1.158 -0.479,-0.479 -0.868,-1.074 -1.166,-1.784 -0.297,-0.709 -0.445,-1.591 -0.445,-2.645 0,-0.846 0.166,-1.664 0.5,-2.457 0.334,-0.793 0.824,-1.497 1.472,-2.113 0.646,-0.615 1.442,-1.111 2.387,-1.487 0.944,-0.375 2.027,-0.563 3.248,-0.563 1.366,0 2.632,0.212 3.795,0.635 1.163,0.422 2.146,1.009 2.95,1.761 l -1.159,2.205 z"
         id="path35"
         style="fill:#ffffff"
         inkscape:connector-curvature="0" /></g></g></svg>