<?xml version="1.0" encoding="UTF-8" standalone="no"?>
<svg
   xmlns:dc="http://purl.org/dc/elements/1.1/"
   xmlns:cc="http://creativecommons.org/ns#"
   xmlns:rdf="http://www.w3.org/1999/02/22-rdf-syntax-ns#"
   xmlns:svg="http://www.w3.org/2000/svg"
   xmlns="http://www.w3.org/2000/svg"
   xmlns:sodipodi="http://sodipodi.sourceforge.net/DTD/sodipodi-0.dtd"
   xmlns:inkscape="http://www.inkscape.org/namespaces/inkscape"
   xml:space="preserve"
   style="enable-background:new 0 0 576.002 576.002;"
   viewBox="0 0 576.002 576.002"
   height="576.002px"
   width="576.002px"
   y="0px"
   x="0px"
   id="Capa_1"
   version="1.1"
   inkscape:version="0.91 r13725"
   sodipodi:docname="wyloguj1.svg"><sodipodi:namedview
     pagecolor="#ffffff"
     bordercolor="#666666"
     borderopacity="1"
     objecttolerance="10"
     gridtolerance="10"
     guidetolerance="10"
     inkscape:pageopacity="0"
     inkscape:pageshadow="2"
     inkscape:window-width="712"
     inkscape:window-height="480"
     id="namedview24"
     showgrid="false"
     inkscape:zoom="0.40972079"
     inkscape:cx="302.37228"
     inkscape:cy="288.00101"
     inkscape:window-x="0"
     inkscape:window-y="0"
     inkscape:window-maximized="0"
     inkscape:current-layer="Capa_1" /><metadata
     id="metadata44"><rdf:RDF><cc:Work
         rdf:about=""><dc:format>image/svg+xml</dc:format><dc:type
           rdf:resource="http://purl.org/dc/dcmitype/StillImage" /><dc:title /></cc:Work></rdf:RDF></metadata><defs
     id="defs42" /><g
     style="fill:#ffffff"
     id="g3"
     transform="matrix(0.82203327,0,0,0.82203327,50.813908,53.695339)"><g
       style="fill:#ffffff"
       id="Share"><g
         style="fill:#ffffff"
         id="g6"><path
           style="fill:#ffffff"
           id="path8"
           d="m 504.001,468.002 c 0,19.872 -16.128,36 -36,36 l -360,0 c -19.872,0 -36,-16.128 -36,-36 l 0,-360 c 0,-19.872 16.128,-36 36,-36 l 108,0 119.988,-72 -263.988,0 c -39.78,0 -72,32.22 -72,72 l 0,432 c 0,39.78 32.22,72 72,72 l 432,0 c 39.78,0 72,-32.22 72,-72 l 0,-297 -72,54 0,207 z M 395.425,70.562 c -0.359,3.636 -0.54,3.024 -0.611,-0.216 -17.748,-0.144 -241.632,17.64 -250.957,292.933 2.664,13.788 48.276,-181.765 252.072,-222.192 0.072,2.916 0.072,74.916 0.072,74.916 l 180,-108 -180,-108 c 0.576,-0.36 -1.368,57.24 -1.188,70.344 1.332,0.035 1.8,0.107 0.612,0.215 z M 144.469,349.706 c -0.54,6.264 -0.576,9.899 -0.576,9.899 0.036,-3.491 0.504,-6.479 0.576,-9.899 z"
           inkscape:connector-curvature="0" /></g></g></g><g
     id="g10" /><g
     id="g12" /><g
     id="g14" /><g
     id="g16" /><g
     id="g18" /><g
     id="g20" /><g
     id="g22" /><g
     id="g24" /><g
     id="g26" /><g
     id="g28" /><g
     id="g30" /><g
     id="g32" /><g
     id="g34" /><g
     id="g36" /><g
     id="g38" /></svg>