<?xml version="1.0" encoding="UTF-8" standalone="no"?>
<!-- Generator: Adobe Illustrator 16.0.0, SVG Export Plug-In . SVG Version: 6.00 Build 0)  -->

<svg
   xmlns:dc="http://purl.org/dc/elements/1.1/"
   xmlns:cc="http://creativecommons.org/ns#"
   xmlns:rdf="http://www.w3.org/1999/02/22-rdf-syntax-ns#"
   xmlns:svg="http://www.w3.org/2000/svg"
   xmlns="http://www.w3.org/2000/svg"
   xmlns:sodipodi="http://sodipodi.sourceforge.net/DTD/sodipodi-0.dtd"
   xmlns:inkscape="http://www.inkscape.org/namespaces/inkscape"
   version="1.1"
   id="Warstwa_1"
   x="0px"
   y="0px"
   width="70"
   height="70"
   viewBox="0 0 70 70"
   enable-background="new 0 0 108 108"
   xml:space="preserve"
   inkscape:version="0.48.5 r10040"
   sodipodi:docname="12_bt.svg"><metadata
   id="metadata23"><rdf:RDF><cc:Work
       rdf:about=""><dc:format>image/svg+xml</dc:format><dc:type
         rdf:resource="http://purl.org/dc/dcmitype/StillImage" /><dc:title></dc:title></cc:Work></rdf:RDF></metadata><defs
   id="defs21">
	
	
</defs><sodipodi:namedview
   pagecolor="#ffffff"
   bordercolor="#666666"
   borderopacity="1"
   objecttolerance="10"
   gridtolerance="10"
   guidetolerance="10"
   inkscape:pageopacity="0"
   inkscape:pageshadow="2"
   inkscape:window-width="1165"
   inkscape:window-height="629"
   id="namedview19"
   showgrid="false"
   inkscape:zoom="2.1851852"
   inkscape:cx="-0.68644068"
   inkscape:cy="54"
   inkscape:window-x="0"
   inkscape:window-y="0"
   inkscape:window-maximized="0"
   inkscape:current-layer="Warstwa_1" />
<g
   style="fill:#ffffff"
   id="g7"
   transform="matrix(0.92988571,0,0,0.92988571,-15.21417,-14.167823)">
		<path
   inkscape:connector-curvature="0"
   style="fill:#ffffff"
   id="path9"
   d="m 66.563,76.735 c -3.517,0 -6.374,-2.859 -6.374,-6.374 0,-1.999 0.933,-3.772 2.376,-4.942 L 51.162,54.02 c -0.175,-0.175 -0.359,-0.333 -0.548,-0.476 l 3.271,-3.443 c 0.168,-0.171 0.329,-0.348 0.475,-0.533 1.888,0.713 3.912,0.911 5.893,0.655 -0.039,-0.281 -0.063,-0.57 -0.063,-0.863 0,-3.516 2.857,-6.374 6.374,-6.374 h 3.3 c 0.784,-1.826 1.137,-3.834 0.962,-5.872 -0.036,-0.403 -0.307,-0.753 -0.688,-0.898 -0.386,-0.133 -0.814,-0.043 -1.104,0.247 l -5.926,5.925 -5.995,-1.513 -1.708,-6.185 5.927,-5.928 c 0.29,-0.287 0.386,-0.723 0.247,-1.104 -0.139,-0.385 -0.491,-0.65 -0.899,-0.689 -3.6,-0.309 -7.126,0.975 -9.674,3.525 -3.49,3.489 -4.413,8.588 -2.778,12.94 -0.175,0.146 -0.354,0.305 -0.531,0.478 l -4.812,4.626 -8.856,-8.85 c -0.112,-0.112 -0.225,-0.208 -0.35,-0.295 0.103,-0.185 0.204,-0.376 0.3,-0.563 1.865,0.352 5.283,-3.289 8.188,-6.188 l -8.458,-8.455 c -3.776,3.784 -6.538,6.314 -6.179,8.191 -0.867,0.417 -1.636,0.935 -2.183,1.481 l -1.193,1.193 c -0.771,0.771 -1.239,1.736 -1.407,2.74 -0.115,0.134 -0.234,0.267 -0.346,0.425 l -0.448,0.558 c -0.01,0.011 -0.05,0.063 -0.057,0.075 l -0.401,0.563 c -0.254,0.337 -0.475,0.706 -0.686,1.054 -0.083,0.132 -0.158,0.267 -0.244,0.392 -0.014,0.025 -0.023,0.052 -0.033,0.066 l -0.182,0.336 c -0.214,0.409 -0.438,0.826 -0.633,1.287 l -0.026,0.076 c -0.23,0.533 -0.461,1.093 -0.626,1.686 l -0.082,0.249 c -0.063,0.218 -0.126,0.427 -0.191,0.669 l -0.161,0.819 c -0.122,0.513 -0.165,1.015 -0.205,1.455 l -0.02,0.297 c -0.06,0.451 -0.043,0.895 -0.029,1.276 0.01,0.129 0.017,0.249 0.02,0.419 0.003,0.074 0.007,0.146 0.007,0.213 0.003,0.169 0.006,0.364 0.039,0.563 l 0.103,0.669 c 0.026,0.12 0.043,0.247 0.06,0.367 0.042,0.266 0.082,0.544 0.158,0.812 l 0.435,1.503 c 0.132,0.453 0.567,0.751 1.042,0.723 0.25,-0.02 0.478,-0.13 0.646,-0.296 0.148,-0.147 0.251,-0.352 0.28,-0.574 l 0.225,-1.525 c 0.02,-0.115 0.068,-0.29 0.121,-0.483 0.043,-0.132 0.083,-0.259 0.105,-0.372 l 0.162,-0.572 c 0.017,-0.084 0.06,-0.148 0.092,-0.232 0.03,-0.074 0.063,-0.138 0.089,-0.214 0.053,-0.125 0.105,-0.249 0.155,-0.367 0.099,-0.241 0.188,-0.472 0.333,-0.695 0.063,-0.103 0.118,-0.205 0.175,-0.313 0.148,-0.269 0.286,-0.513 0.455,-0.727 0.013,-0.005 0.022,-0.02 0.032,-0.04 l 0.376,-0.518 c 0.079,-0.097 0.161,-0.183 0.251,-0.283 0.059,-0.058 0.118,-0.127 0.194,-0.219 0.217,-0.264 0.48,-0.5 0.731,-0.729 l 0.135,-0.117 c 0.185,-0.168 0.402,-0.336 0.63,-0.504 0.092,-0.071 0.188,-0.146 0.273,-0.215 0.115,-0.067 0.228,-0.144 0.336,-0.223 0.208,-0.13 0.383,-0.252 0.59,-0.357 l 0.443,-0.26 0.451,-0.222 c 0.154,-0.074 0.313,-0.137 0.457,-0.195 0.079,-0.038 0.168,-0.073 0.244,-0.103 0.079,-0.033 0.155,-0.056 0.228,-0.089 0.096,-0.029 0.178,-0.071 0.293,-0.096 l 0.122,-0.033 c 0.132,0.223 0.29,0.424 0.475,0.613 l 8.754,8.747 -18.689,17.959 c -0.01,0.01 -0.02,0.015 -0.026,0.018 -2.32,2.33 -2.702,5.733 -0.379,8.063 2.33,2.321 5.521,1.729 7.841,-0.601 0.014,-0.008 0.02,-0.015 0.029,-0.024 L 43.357,61.187 c 0.099,0.116 0.197,0.229 0.303,0.336 l 18.49,18.49 c 2.07,2.067 5.429,2.067 7.502,0 0.913,-0.915 1.4,-2.081 1.506,-3.276 H 66.563 z M 24.432,76.653 c -0.86,0.858 -2.248,0.858 -3.102,0 -0.86,-0.853 -0.86,-2.241 0,-3.099 0.851,-0.858 2.241,-0.858 3.102,0 0.857,0.858 0.857,2.247 0,3.099 z" />
		<g
   style="fill:#ffffff"
   id="g11">
			<path
   inkscape:connector-curvature="0"
   style="fill:#ffffff"
   id="path13"
   d="M 87.565,67.362 H 66.563 c -1.654,0 -2.999,1.344 -2.999,2.999 0,1.654 1.345,2.999 2.999,2.999 h 21.002 c 1.654,0 2.999,-1.345 2.999,-2.999 0,-1.655 -1.344,-2.999 -2.999,-2.999 z" />
			<path
   inkscape:connector-curvature="0"
   style="fill:#ffffff"
   id="path15"
   d="M 87.565,56.861 H 66.563 c -1.654,0 -2.999,1.345 -2.999,2.999 0,1.654 1.345,2.999 2.999,2.999 h 21.002 c 1.654,0 2.999,-1.345 2.999,-2.999 0,-1.654 -1.344,-2.999 -2.999,-2.999 z" />
			<path
   inkscape:connector-curvature="0"
   style="fill:#ffffff"
   id="path17"
   d="M 87.565,46.36 H 66.563 c -1.654,0 -2.999,1.345 -2.999,2.999 0,1.654 1.345,2.999 2.999,2.999 h 21.002 c 1.654,0 2.999,-1.345 2.999,-2.999 0,-1.654 -1.344,-2.999 -2.999,-2.999 z" />
		</g>
	</g>
</svg>