<?xml version="1.0" encoding="UTF-8" standalone="no"?>
<!-- Generator: Adobe Illustrator 16.0.0, SVG Export Plug-In . SVG Version: 6.00 Build 0)  -->

<svg
   xmlns:dc="http://purl.org/dc/elements/1.1/"
   xmlns:cc="http://creativecommons.org/ns#"
   xmlns:rdf="http://www.w3.org/1999/02/22-rdf-syntax-ns#"
   xmlns:svg="http://www.w3.org/2000/svg"
   xmlns="http://www.w3.org/2000/svg"
   xmlns:sodipodi="http://sodipodi.sourceforge.net/DTD/sodipodi-0.dtd"
   xmlns:inkscape="http://www.inkscape.org/namespaces/inkscape"
   version="1.1"
   id="Warstwa_1"
   x="0px"
   y="0px"
   width="70"
   height="70"
   viewBox="0 0 70 70"
   enable-background="new 0 0 108 108"
   xml:space="preserve"
   inkscape:version="0.48.5 r10040"
   sodipodi:docname="menu.svg"><metadata
   id="metadata23"><rdf:RDF><cc:Work
       rdf:about=""><dc:format>image/svg+xml</dc:format><dc:type
         rdf:resource="http://purl.org/dc/dcmitype/StillImage" /><dc:title /></cc:Work></rdf:RDF></metadata><defs
   id="defs21">
	
	
</defs><sodipodi:namedview
   pagecolor="#ffffff"
   bordercolor="#666666"
   borderopacity="1"
   objecttolerance="10"
   gridtolerance="10"
   guidetolerance="10"
   inkscape:pageopacity="0"
   inkscape:pageshadow="2"
   inkscape:window-width="1046"
   inkscape:window-height="706"
   id="namedview19"
   showgrid="false"
   inkscape:zoom="2.1851852"
   inkscape:cx="-0.68644068"
   inkscape:cy="54"
   inkscape:window-x="0"
   inkscape:window-y="0"
   inkscape:window-maximized="0"
   inkscape:current-layer="Warstwa_1" />
<g
   style="fill:#ffffff"
   id="g7"
   transform="translate(-19.0015,-18.4505)">
		<path
   inkscape:connector-curvature="0"
   style="fill:#ffffff"
   id="path9"
   d="m 57.429,71.673 c 0,-2.179 1.102,-4.101 2.772,-5.251 -1.402,-0.964 -2.393,-2.475 -2.678,-4.222 -2.077,-1.023 -4.295,-1.92 -6.44,-2.63 -0.337,-0.112 -2.473,-1.074 -1.138,-5.132 h -0.021 c 3.48,-3.583 6.141,-9.349 6.141,-15.024 0,-8.73 -5.804,-13.304 -12.551,-13.304 -6.75,0 -12.521,4.573 -12.521,13.304 0,5.698 2.646,11.488 6.146,15.063 1.364,3.577 -1.074,4.907 -1.587,5.094 -7.066,2.558 -15.354,7.211 -15.354,11.809 0,1.241 0,0.491 0,1.725 0,6.262 12.147,7.686 23.385,7.686 7.387,0 15.067,-0.625 19.49,-2.816 -3.169,-0.37 -5.644,-3.037 -5.644,-6.302 z" />
		<g
   style="fill:#ffffff"
   id="g11">
			<path
   inkscape:connector-curvature="0"
   style="fill:#ffffff"
   id="path13"
   d="M 84.806,68.674 H 63.804 c -1.655,0 -3,1.344 -3,2.999 0,1.654 1.345,2.999 3,2.999 h 21.002 c 1.654,0 2.999,-1.345 2.999,-2.999 0,-1.655 -1.345,-2.999 -2.999,-2.999 z" />
			<path
   inkscape:connector-curvature="0"
   style="fill:#ffffff"
   id="path15"
   d="M 84.806,58.173 H 63.804 c -1.655,0 -3,1.345 -3,2.999 0,1.654 1.345,2.999 3,2.999 h 21.002 c 1.654,0 2.999,-1.345 2.999,-2.999 0,-1.654 -1.345,-2.999 -2.999,-2.999 z" />
			<path
   inkscape:connector-curvature="0"
   style="fill:#ffffff"
   id="path17"
   d="M 84.806,47.672 H 63.804 c -1.655,0 -3,1.345 -3,2.999 0,1.655 1.345,2.999 3,2.999 h 21.002 c 1.654,0 2.999,-1.344 2.999,-2.999 0,-1.654 -1.345,-2.999 -2.999,-2.999 z" />
		</g>
	</g>
</svg>