<?xml version="1.0" encoding="UTF-8" standalone="no"?>
<!-- Generator: Adobe Illustrator 16.0.0, SVG Export Plug-In . SVG Version: 6.00 Build 0)  -->

<svg
   xmlns:dc="http://purl.org/dc/elements/1.1/"
   xmlns:cc="http://creativecommons.org/ns#"
   xmlns:rdf="http://www.w3.org/1999/02/22-rdf-syntax-ns#"
   xmlns:svg="http://www.w3.org/2000/svg"
   xmlns="http://www.w3.org/2000/svg"
   xmlns:sodipodi="http://sodipodi.sourceforge.net/DTD/sodipodi-0.dtd"
   xmlns:inkscape="http://www.inkscape.org/namespaces/inkscape"
   version="1.1"
   id="Warstwa_1"
   x="0px"
   y="0px"
   width="70"
   height="70"
   viewBox="0 0 70 70"
   enable-background="new 0 0 108 108"
   xml:space="preserve"
   inkscape:version="0.48.5 r10040"
   sodipodi:docname="50_bt.svg"><metadata
   id="metadata19"><rdf:RDF><cc:Work
       rdf:about=""><dc:format>image/svg+xml</dc:format><dc:type
         rdf:resource="http://purl.org/dc/dcmitype/StillImage" /><dc:title></dc:title></cc:Work></rdf:RDF></metadata><defs
   id="defs17">
	
	
</defs><sodipodi:namedview
   pagecolor="#ffffff"
   bordercolor="#666666"
   borderopacity="1"
   objecttolerance="10"
   gridtolerance="10"
   guidetolerance="10"
   inkscape:pageopacity="0"
   inkscape:pageshadow="2"
   inkscape:window-width="1338"
   inkscape:window-height="981"
   id="namedview15"
   showgrid="false"
   inkscape:zoom="2.1851852"
   inkscape:cx="-0.68644068"
   inkscape:cy="54"
   inkscape:window-x="0"
   inkscape:window-y="0"
   inkscape:window-maximized="0"
   inkscape:current-layer="Warstwa_1" />
<g
   style="fill:#ffffff"
   id="g7"
   transform="translate(-18.9985,-19.001)">
		<path
   inkscape:connector-curvature="0"
   style="fill:#ffffff"
   id="path9"
   d="m 59.824,36.252 h -1.973 v -5.9 c 0,-2.127 -1.725,-3.852 -3.854,-3.852 -2.127,0 -3.852,1.725 -3.852,3.852 v 5.9 h -1.973 c -1.217,0 -2.202,0.984 -2.202,2.201 v 11.684 c 0,1.217 0.985,2.201 2.202,2.201 h 1.973 v 25.309 c 0,2.129 1.725,3.854 3.852,3.854 2.129,0 3.854,-1.725 3.854,-3.854 V 52.338 h 1.973 c 1.217,0 2.201,-0.984 2.201,-2.201 V 38.453 c 0,-1.217 -0.984,-2.201 -2.201,-2.201 z m -2.201,11.684 h -7.248 v -7.281 h 7.248 v 7.281 z" />
		<path
   inkscape:connector-curvature="0"
   style="fill:#ffffff"
   id="path11"
   d="M 81.728,47.006 H 79.755 V 30.352 c 0,-2.127 -1.725,-3.852 -3.854,-3.852 -2.128,0 -3.852,1.725 -3.852,3.852 v 16.654 h -1.975 c -1.216,0 -2.201,0.986 -2.201,2.201 v 11.686 c 0,1.215 0.985,2.201 2.201,2.201 h 1.975 v 14.553 c 0,2.129 1.724,3.854 3.852,3.854 2.129,0 3.854,-1.725 3.854,-3.854 V 63.094 h 1.973 c 1.217,0 2.201,-0.986 2.201,-2.201 V 49.207 c 0,-1.215 -0.984,-2.201 -2.201,-2.201 z m -2.201,11.685 h -7.249 v -7.283 h 7.249 v 7.283 z" />
		<path
   inkscape:connector-curvature="0"
   style="fill:#ffffff"
   id="path13"
   d="M 37.92,52.205 H 35.946 V 30.352 c 0,-2.127 -1.725,-3.852 -3.852,-3.852 -2.129,0 -3.853,1.725 -3.853,3.852 v 21.854 h -1.972 c -1.217,0 -2.201,0.986 -2.201,2.201 v 11.688 c 0,1.215 0.984,2.201 2.201,2.201 h 1.972 v 9.352 c 0,2.129 1.724,3.854 3.853,3.854 2.127,0 3.852,-1.725 3.852,-3.854 v -9.352 h 1.974 c 1.217,0 2.202,-0.986 2.202,-2.201 V 54.406 c 10e-4,-1.215 -0.985,-2.201 -2.202,-2.201 z m -2.201,11.686 h -7.247 v -7.283 h 7.247 v 7.283 z" />
	</g>
</svg>