<?xml version="1.0" encoding="UTF-8" standalone="no"?>
<!-- Generator: Adobe Illustrator 16.0.0, SVG Export Plug-In . SVG Version: 6.00 Build 0)  -->

<svg
   xmlns:dc="http://purl.org/dc/elements/1.1/"
   xmlns:cc="http://creativecommons.org/ns#"
   xmlns:rdf="http://www.w3.org/1999/02/22-rdf-syntax-ns#"
   xmlns:svg="http://www.w3.org/2000/svg"
   xmlns="http://www.w3.org/2000/svg"
   xmlns:sodipodi="http://sodipodi.sourceforge.net/DTD/sodipodi-0.dtd"
   xmlns:inkscape="http://www.inkscape.org/namespaces/inkscape"
   version="1.1"
   id="Warstwa_1"
   x="0px"
   y="0px"
   width="70"
   height="70"
   viewBox="0 0 70 70"
   enable-background="new 0 0 108 108"
   xml:space="preserve"
   inkscape:version="0.48.5 r10040"
   sodipodi:docname="74_bt.svg"><metadata
   id="metadata21"><rdf:RDF><cc:Work
       rdf:about=""><dc:format>image/svg+xml</dc:format><dc:type
         rdf:resource="http://purl.org/dc/dcmitype/StillImage" /><dc:title></dc:title></cc:Work></rdf:RDF></metadata><defs
   id="defs19">
	
	
</defs><sodipodi:namedview
   pagecolor="#ffffff"
   bordercolor="#666666"
   borderopacity="1"
   objecttolerance="10"
   gridtolerance="10"
   guidetolerance="10"
   inkscape:pageopacity="0"
   inkscape:pageshadow="2"
   inkscape:window-width="1452"
   inkscape:window-height="1033"
   id="namedview17"
   showgrid="false"
   inkscape:zoom="2.1851852"
   inkscape:cx="-0.68644068"
   inkscape:cy="54"
   inkscape:window-x="0"
   inkscape:window-y="0"
   inkscape:window-maximized="0"
   inkscape:current-layer="Warstwa_1" />
<g
   style="fill:#ffffff"
   id="g7"
   transform="translate(-19,-19.0005)">
		<path
   inkscape:connector-curvature="0"
   style="fill:#ffffff"
   id="path9"
   d="m 61.545,30.574 c -2.719,0 -4.932,2.213 -4.932,4.932 v 43.563 c 0,2.719 2.213,4.932 4.932,4.932 2.719,0 4.932,-2.213 4.932,-4.932 V 35.506 c 0,-2.719 -2.213,-4.932 -4.932,-4.932 z" />
		<path
   inkscape:connector-curvature="0"
   style="fill:#ffffff"
   id="path11"
   d="m 29.605,40.438 c -2.719,0 -4.932,2.213 -4.932,4.932 v 33.699 c 0,2.719 2.213,4.932 4.932,4.932 2.719,0 4.932,-2.213 4.932,-4.932 v -33.7 c 0,-2.719 -2.213,-4.931 -4.932,-4.931 z" />
		<path
   inkscape:connector-curvature="0"
   style="fill:#ffffff"
   id="path13"
   d="m 78.393,47.014 c -2.719,0 -4.93,2.211 -4.93,4.932 v 27.123 c 0,2.719 2.211,4.932 4.93,4.932 2.721,0 4.934,-2.213 4.934,-4.932 V 51.945 c -0.001,-2.72 -2.214,-4.931 -4.934,-4.931 z" />
		<path
   inkscape:connector-curvature="0"
   style="fill:#ffffff"
   id="path15"
   d="m 45.107,24 c -2.721,0 -4.932,2.211 -4.932,4.932 v 50.137 c 0,2.719 2.211,4.932 4.932,4.932 2.719,0 4.93,-2.213 4.93,-4.932 V 28.932 C 50.037,26.211 47.826,24 45.107,24 z" />
	</g>
</svg>