<?xml version="1.0" encoding="UTF-8" standalone="no"?>
<!-- Generator: Adobe Illustrator 18.0.0, SVG Export Plug-In . SVG Version: 6.00 Build 0)  -->

<svg
   xmlns:dc="http://purl.org/dc/elements/1.1/"
   xmlns:cc="http://creativecommons.org/ns#"
   xmlns:rdf="http://www.w3.org/1999/02/22-rdf-syntax-ns#"
   xmlns:svg="http://www.w3.org/2000/svg"
   xmlns="http://www.w3.org/2000/svg"
   xmlns:sodipodi="http://sodipodi.sourceforge.net/DTD/sodipodi-0.dtd"
   xmlns:inkscape="http://www.inkscape.org/namespaces/inkscape"
   version="1.1"
   id="Capa_1"
   x="0px"
   y="0px"
   viewBox="0 0 352.804 352.804"
   style="enable-background:new 0 0 352.804 352.804;"
   xml:space="preserve"
   inkscape:version="0.91 r13725"
   sodipodi:docname="strefy.svg"><metadata
     id="metadata41"><rdf:RDF><cc:Work
         rdf:about=""><dc:format>image/svg+xml</dc:format><dc:type
           rdf:resource="http://purl.org/dc/dcmitype/StillImage" /><dc:title /></cc:Work></rdf:RDF></metadata><defs
     id="defs39" /><sodipodi:namedview
     pagecolor="#ffffff"
     bordercolor="#666666"
     borderopacity="1"
     objecttolerance="10"
     gridtolerance="10"
     guidetolerance="10"
     inkscape:pageopacity="0"
     inkscape:pageshadow="2"
     inkscape:window-width="1409"
     inkscape:window-height="609"
     id="namedview37"
     showgrid="false"
     inkscape:zoom="0.66892668"
     inkscape:cx="-278.80484"
     inkscape:cy="176.40199"
     inkscape:window-x="0"
     inkscape:window-y="0"
     inkscape:window-maximized="0"
     inkscape:current-layer="Capa_1" /><g
     id="g3"
     transform="matrix(0,0.87156777,-0.9700812,0,348.3187,15.928007)"
     style="fill:#ffffff"><path
       d="m 318.54,57.282 -47.652,0 0,-42.282 c 0,-8.284 -6.716,-15 -15,-15 L 34.264,0 c -8.284,0 -15,6.716 -15,15 l 0,265.522 c 0,8.284 6.716,15 15,15 l 47.651,0 0,42.281 c 0,8.284 6.716,15 15,15 l 221.625,0 c 8.284,0 15,-6.716 15,-15 l 0,-265.521 c 0,-8.284 -6.716,-15 -15,-15 z m -269.276,208.24 0,-235.522 191.623,0 0,27.282 -143.971,0 c -8.284,0 -15,6.716 -15,15 l 0,193.24 -32.652,0 z m 254.276,57.282 -191.624,0 0,-235.522 191.624,0 0,235.522 z"
       id="path5"
       inkscape:connector-curvature="0"
       style="fill:#ffffff" /></g><g
     id="g7" /><g
     id="g9" /><g
     id="g11" /><g
     id="g13" /><g
     id="g15" /><g
     id="g17" /><g
     id="g19" /><g
     id="g21" /><g
     id="g23" /><g
     id="g25" /><g
     id="g27" /><g
     id="g29" /><g
     id="g31" /><g
     id="g33" /><g
     id="g35" /><text
     xml:space="preserve"
     style="font-style:normal;font-weight:normal;font-size:61.24583817px;line-height:125%;font-family:sans-serif;letter-spacing:0px;word-spacing:0px;fill:#ffffff;fill-opacity:1;stroke:none;stroke-width:1px;stroke-linecap:butt;stroke-linejoin:miter;stroke-opacity:1;"
     x="49.265049"
     y="235.29874"
     id="text4169"
     sodipodi:linespacing="125%"
     transform="scale(0.98896004,1.0111632)"><tspan
       sodipodi:role="line"
       id="tspan4171"
       x="49.265049"
       y="235.29874"
       style="font-style:normal;font-variant:normal;font-weight:bold;font-stretch:normal;font-size:104.11792755px;font-family:Arial;-inkscape-font-specification:'Arial Bold';fill:#ffffff;">21.0</tspan></text>
</svg>