<?xml version="1.0" encoding="utf-8"?>
<!-- Generator: Adobe Illustrator 16.0.0, SVG Export Plug-In . SVG Version: 6.00 Build 0)  -->
<!DOCTYPE svg PUBLIC "-//W3C//DTD SVG 1.1//EN" "http://www.w3.org/Graphics/SVG/1.1/DTD/svg11.dtd">
<svg version="1.1" id="Warstwa_1" xmlns="http://www.w3.org/2000/svg" xmlns:xlink="http://www.w3.org/1999/xlink" x="0px" y="0px"
	 width="339.963px" height="69.462px" viewBox="0 0 339.963 69.462" enable-background="new 0 0 339.963 69.462"
	 xml:space="preserve">
<g>
	<path fill="#FFFFFF" d="M65.382,21.521H0V0h65.382V21.521z M41.616,69.462h-21.42V32.028h21.42V69.462z"/>
	<path fill="#FFFFFF" d="M135.557,16.218H92.819v5.304H71.5V0h64.056V16.218z M136.781,69.462H71.5V32.13h48.042v16.014H92.819
		v5.305h43.962V69.462z"/>
	<path fill="#FFFFFF" d="M243.778,21.521h-97.41V10.506c0-1.632,0.424-3.094,1.275-4.386c0.849-1.291,1.971-2.397,3.366-3.315
		c1.393-0.918,3.009-1.614,4.845-2.091C157.69,0.239,159.593,0,161.566,0h66.912c2.107,0,4.08,0.239,5.916,0.714
		c1.836,0.477,3.45,1.173,4.845,2.091c1.393,0.918,2.499,2.024,3.315,3.315c0.816,1.292,1.224,2.754,1.224,4.386V21.521z
		 M243.778,69.462h-82.212c-0.816,0-2.142-0.237-3.978-0.714c-7.481-1.972-11.22-5.304-11.22-9.996V32.028h21.318v15.911
		c0,1.361,0.322,2.415,0.969,3.162c0.646,0.749,1.615,1.361,2.907,1.836l1.428,0.511h70.788V69.462z"/>
	<path fill="#FFFFFF" d="M275.907,21.521h-21.318V0h21.318V21.521z M339.963,69.462h-21.318V48.144h-42.738v21.318h-21.318V32.13
		h85.374V69.462z M339.963,21.521h-21.318V0h21.318V21.521z"/>
</g>
</svg>
