<?xml version="1.0" encoding="UTF-8" standalone="no"?>
<!-- Generator: Adobe Illustrator 16.0.0, SVG Export Plug-In . SVG Version: 6.00 Build 0)  -->

<svg
   xmlns:dc="http://purl.org/dc/elements/1.1/"
   xmlns:cc="http://creativecommons.org/ns#"
   xmlns:rdf="http://www.w3.org/1999/02/22-rdf-syntax-ns#"
   xmlns:svg="http://www.w3.org/2000/svg"
   xmlns="http://www.w3.org/2000/svg"
   xmlns:sodipodi="http://sodipodi.sourceforge.net/DTD/sodipodi-0.dtd"
   xmlns:inkscape="http://www.inkscape.org/namespaces/inkscape"
   version="1.1"
   id="Warstwa_1"
   x="0px"
   y="0px"
   width="339.963px"
   height="69.462px"
   viewBox="0 0 339.963 69.462"
   enable-background="new 0 0 339.963 69.462"
   xml:space="preserve"
   inkscape:version="0.91 r13725"
   sodipodi:docname="logo_tech_vector_dark.svg"><metadata
     id="metadata17"><rdf:RDF><cc:Work
         rdf:about=""><dc:format>image/svg+xml</dc:format><dc:type
           rdf:resource="http://purl.org/dc/dcmitype/StillImage" /><dc:title></dc:title></cc:Work></rdf:RDF></metadata><defs
     id="defs15" /><sodipodi:namedview
     pagecolor="#ffffff"
     bordercolor="#666666"
     borderopacity="1"
     objecttolerance="10"
     gridtolerance="10"
     guidetolerance="10"
     inkscape:pageopacity="0"
     inkscape:pageshadow="2"
     inkscape:window-width="1247"
     inkscape:window-height="634"
     id="namedview13"
     showgrid="false"
     inkscape:zoom="1.0589387"
     inkscape:cx="169.98151"
     inkscape:cy="34.730999"
     inkscape:window-x="0"
     inkscape:window-y="97"
     inkscape:window-maximized="0"
     inkscape:current-layer="Warstwa_1" /><g
     id="g3"
     style="fill:#101521;fill-opacity:1"><path
       fill="#FFFFFF"
       d="M65.382,21.521H0V0h65.382V21.521z M41.616,69.462h-21.42V32.028h21.42V69.462z"
       id="path5"
       style="fill:#101521;fill-opacity:1" /><path
       fill="#FFFFFF"
       d="M135.557,16.218H92.819v5.304H71.5V0h64.056V16.218z M136.781,69.462H71.5V32.13h48.042v16.014H92.819   v5.305h43.962V69.462z"
       id="path7"
       style="fill:#101521;fill-opacity:1" /><path
       fill="#FFFFFF"
       d="M243.778,21.521h-97.41V10.506c0-1.632,0.424-3.094,1.275-4.386c0.849-1.291,1.971-2.397,3.366-3.315   c1.393-0.918,3.009-1.614,4.845-2.091C157.69,0.239,159.593,0,161.566,0h66.912c2.107,0,4.08,0.239,5.916,0.714   c1.836,0.477,3.45,1.173,4.845,2.091c1.393,0.918,2.499,2.024,3.315,3.315c0.816,1.292,1.224,2.754,1.224,4.386V21.521z    M243.778,69.462h-82.212c-0.816,0-2.142-0.237-3.978-0.714c-7.481-1.972-11.22-5.304-11.22-9.996V32.028h21.318v15.911   c0,1.361,0.322,2.415,0.969,3.162c0.646,0.749,1.615,1.361,2.907,1.836l1.428,0.511h70.788V69.462z"
       id="path9"
       style="fill:#101521;fill-opacity:1" /><path
       fill="#FFFFFF"
       d="M275.907,21.521h-21.318V0h21.318V21.521z M339.963,69.462h-21.318V48.144h-42.738v21.318h-21.318V32.13   h85.374V69.462z M339.963,21.521h-21.318V0h21.318V21.521z"
       id="path11"
       style="fill:#101521;fill-opacity:1" /></g></svg>